<?xml version="1.0" encoding="utf-8"?>
<!-- Generator: Adobe Illustrator 26.5.0, SVG Export Plug-In . SVG Version: 6.00 Build 0)  -->
<svg version="1.1" id="Слой_1" xmlns="http://www.w3.org/2000/svg" xmlns:xlink="http://www.w3.org/1999/xlink" x="0px" y="0px"
	 viewBox="0 0 92.8 72.8" style="enable-background:new 0 0 92.8 72.8;" xml:space="preserve">
<style type="text/css">
	.st0{fill:#008000;}
</style>
<path class="st0" d="M92.8,51.3c0,0.4-0.3,0.8-0.8,0.8H57.5v8.1c0.1,0,0.1,0.1,0.1,0.1l3.5,4.4h3.6c0.6,0,1,0.4,1,1l0,0v6.1
	c0,0.6-0.4,1-1,1H1c-0.6,0-1-0.4-1-1l0,0v-6.1c0-0.6,0.4-1,1-1h3.6l3.5-4.4l0.1-0.1V52H2c-0.4,0-0.8-0.3-0.8-0.8s0.3-0.8,0.8-0.8
	h6.2V24.6C8.4,11,19.5,0.1,33.1,0.2C44.8,0.4,54.7,8.6,57,20.1h0.6c1.2-6.2,7.2-10.4,13.4-9.2c4.7,0.9,8.3,4.5,9.2,9.2h2
	c0.4,0,0.7,0.3,0.8,0.7c0,0,0,0,0,0v23.8l0,0l1.9,2.4h1.9c0.4,0,0.8,0.3,0.8,0.8v2.7H92C92.4,50.5,92.8,50.8,92.8,51.3L92.8,51.3z
	 M63.7,66.7H2v4.1h61.7L63.7,66.7z M58.6,64.7l-2.2-2.8h-47l-2.2,2.8H58.6z M14,59.9h37.7V24.6C51.5,14.2,42.8,6,32.4,6.2
	C22.4,6.4,14.2,14.5,14,24.6V59.9z M55.5,51.3V24.6C55.5,12.1,45.4,2,32.8,2S10.2,12.1,10.2,24.6v35H12v-35
	C12.3,13.1,21.8,4,33.3,4.2c11.2,0.2,20.1,9.2,20.4,20.4v35h1.8V51.3z M58.3,21.6h-1c0.1,1,0.2,2.1,0.2,3.1v19.8h24V21.6h-1.8
	c-0.4,0-0.7-0.3-0.7-0.7c-0.6-5.5-5.6-9.4-11.1-8.8c-4.6,0.5-8.3,4.2-8.8,8.8C59,21.3,58.6,21.5,58.3,21.6z M83,47.1l-0.5-0.7
	l-0.4-0.6H57.5v1.2H83z M57.5,50.5h28.6v-1.9H57.5V50.5z M41,21.5v3.7c0,0.6-0.4,1-1,1h-4.3v16.1c0,0.6-0.4,1-1,1H31
	c-0.6,0-1-0.4-1-1l0,0V26.2h-4.3c-0.6,0-1-0.4-1-1l0,0v-3.7c0-0.6,0.4-1,1-1H30v-4.8c0-0.6,0.4-1,1-1h3.7c0.6,0,1,0.4,1,1l0,0v4.9
	H40C40.6,20.5,41,20.9,41,21.5L41,21.5z"/>
<path class="st0" d="M72.2,32.3c-3.7,0-6.7-3-6.7-6.7c0-3.7,3-6.7,6.7-6.7c1.1,0,2.1,0.2,3.1,0.7c-3.5-3-8.8-2.6-11.8,0.9
	c-3,3.5-2.6,8.8,0.9,11.8c3.5,3,8.8,2.6,11.8-0.9c0.3-0.4,0.6-0.8,0.9-1.2C75.7,31.6,74,32.3,72.2,32.3z"/>
</svg>
